SplineFontDB: 3.0
FontName: m0
FullName: m0
FamilyName: m0
Weight: Medium
Copyright: Created by Khaled Hosny with Sorts Mill Tools 2.1.0_alpha1 <http://bitbucket.org/sortsmill/sortsmill-tools>
UComments: "2015-10-10: Created." 
Version: 001.000
StrokeWidth: 32
ItalicAngle: 0
UnderlinePosition: -100
UnderlineWidth: 50
Ascent: 800
Descent: 200
LayerCount: 2
Layer: 0 0 "Back"  1
Layer: 1 0 "Fore"  0
XUID: [1021 670 513581992 4353041]
OS2_WeightWidthSlopeOnly: 0
OS2_UseTypoMetrics: 1
CreationTime: 1444496159
ModificationTime: 1444843848
OS2TypoAscent: 0
OS2TypoAOffset: 1
OS2TypoDescent: 0
OS2TypoDOffset: 1
OS2TypoLinegap: 0
OS2WinAscent: 0
OS2WinAOffset: 1
OS2WinDescent: 0
OS2WinDOffset: 1
HheadAscent: 0
HheadAOffset: 1
HheadDescent: 0
HheadDOffset: 1
OS2Vendor: 'PfEd'
MarkAttachClasses: 1
DEI: 91125
Encoding: UnicodeBmp
Compacted: 1
UnicodeInterp: none
NameList: AGL For New Fonts
DisplaySize: -96
AntiAlias: 1
FitToEm: 1
WinInfo: 0 6 5
BeginPrivate: 0
EndPrivate
BeginChars: 65563 63

StartChar: uni0627
Encoding: 1575 1575 0
Width: 1000
VWidth: 0
Flags: H
LayerCount: 2
Back
SplineSet
526 660 m 1
 526 69 l 2
 526 61 521 53 511 53 c 9
EndSplineSet
Fore
SplineSet
510 660 m 1
 542 660 l 1
 542 69 l 0
 542 55 531 37 510 37 c 1
 510 660 l 1
EndSplineSet
EndChar

StartChar: uni062D
Encoding: 1581 1581 1
Width: 1000
VWidth: 0
Flags: HWO
LayerCount: 2
Back
SplineSet
643 -223 m 1
 643 -255 l 1
 402 -254 l 1
 345 -255 302 -213 302 -158 c 0
 302 -43 l 0
 302 11 349 69 410 69 c 0
 655 69 l 1
 663 69 l 17
 661.911111111 69.2444444444 661.377777778 69.3777777778 659 70 c 5
 620 80 589 109 563 137 c 0
 522 182 481 255 375 295 c 1
 387 325 l 1
 503 281 550 200 587 159 c 0
 617 126 649 99 682 99 c 0
 698 99 l 1
 698 83 l 0
 698 70 686 35 655 37 c 1
 410 37 l 0
 369 37 334 -5 334 -43 c 0
 334 -158 l 0
 334 -195 361 -223 402 -222 c 1
 643 -223 l 1
643 -239 m 5
 402 -238 l 6
 353 -239 318 -204 318 -158 c 6
 318 -43 l 6
 318 3 359 53 410 53 c 6
 655 53 l 6
 673 52 682 74 682 83 c 5
 641 83 605 115 575 148 c 4
 536 191 492 268 381 310 c 13
EndSplineSet
Fore
SplineSet
643 -222 m 1
 643 -254 l 1
 402 -254 l 2
 345 -255 302 -213 302 -158 c 0
 302 -43 l 0
 302 11 349 69 410 69 c 2
 663 69 l 17
 621.496398162 78.3171351064 589.895153832 108.035988181 563 137 c 0
 522 182 481 255 375 295 c 1
 387 325 l 1
 503 281 550 200 587 159 c 0
 623.544650321 118.800884647 648.558800636 99 698 99 c 1
 698 83 l 0
 698 70 686 35 655 37 c 1
 410 37 l 2
 369 37 334 -5 334 -43 c 0
 334 -158 l 0
 334 -195 361 -223 402 -222 c 2
 643 -222 l 1
EndSplineSet
EndChar

StartChar: uni062F
Encoding: 1583 1583 2
Width: 1000
VWidth: 0
Flags: HW
LayerCount: 2
Back
SplineSet
472 330 m 17
 544 294 652 233 658 104 c 0
 658 81 644 52 606 52 c 2
 342 52 l 1
EndSplineSet
Fore
SplineSet
464.844582472 315.689164944 m 1
 479.155417528 344.310835056 l 1
 550.985108658 308.395989491 667.513080863 243.840653443 673.982721377 104.74338239 c 0
 673.993692382 104.507505796 674 104.174752127 674 104 c 0
 674 75.2545260034 654.80541516 36 606 36 c 0
 342 36 l 1
 342 68 l 1
 606 68 l 0
 632.951327517 68 641.7776356 86.1793580071 641.999013303 103.663519492 c 1
 635.918608358 221.928195185 537.345671549 279.438620406 464.844582472 315.689164944 c 1
EndSplineSet
EndChar

StartChar: uni0631
Encoding: 1585 1585 3
Width: 1000
VWidth: 0
Flags: HW
LayerCount: 2
Back
SplineSet
543 187 m 1
 543 -1 l 2
 543 -83 525 -148 444 -148 c 2
 372 -148 l 1
EndSplineSet
Fore
SplineSet
527 187 m 1
 559 187 l 1
 559 -1 l 0
 559 -83.1111364844 539.268437347 -164 444 -164 c 0
 372 -164 l 1
 372 -132 l 1
 444 -132 l 0
 510.731562653 -132 527 -82.8888635156 527 -1 c 0
 527 187 l 1
EndSplineSet
EndChar

StartChar: uni066E
Encoding: 1646 1646 4
Width: 1000
VWidth: 0
Flags: HW
LayerCount: 2
Back
SplineSet
-35 621 m 0,0,1
781 300 m 1,25,-1
 781 105 l 2,26,27
 781 79 754 53 729 53 c 2,28,-1
 337 53 l 2,29,30
 274 53 219 100 219 160 c 2,31,-1
 219 300 l 1
EndSplineSet
Fore
SplineSet
-35 621 m 1
765 300 m 1
 797 300 l 1
 797 105 l 0
 797 69.3074340747 763.384128046 37 729 37 c 0
 337 37 l 0
 266.683275685 37 203 89.5504519933 203 160 c 0
 203 300 l 1
 235 300 l 1
 235 160 l 0
 235 110.449548007 281.316724315 69 337 69 c 0
 729 69 l 0
 744.615871954 69 765 88.6925659253 765 105 c 0
 765 300 l 1
EndSplineSet
EndChar

StartChar: uni0633
Encoding: 1587 1587 5
Width: 1000
VWidth: 0
Flags: HW
LayerCount: 2
Back
SplineSet
848 376 m 5
 848 104 l 6
 848 75 825 52 794 52 c 6
 679 52 l 5
674 376 m 5
 674 104 l 6
 674 75 652 52 621 52 c 6
 509 52 l 5
501 378 m 5
 501 -97 l 6
 501 -126 479 -149 448 -149 c 2
 181 -149 l 2
 154 -149 132 -122 132 -93 c 2
 132 185 l 1
EndSplineSet
Fore
SplineSet
832 376 m 1
 864 376 l 1
 864 104 l 0
 864 65.9514431627 833.30959862 36 794 36 c 0
 679 36 l 1
 679 68 l 1
 794 68 l 0
 816.69040138 68 832 84.0485568373 832 104 c 0
 832 376 l 1
658 376 m 1
 690 376 l 1
 690 104 l 0
 690 66.3621713737 660.595501685 36 621 36 c 0
 509 36 l 1
 509 68 l 1
 621 68 l 0
 643.404498315 68 658 83.6378286263 658 104 c 0
 658 376 l 1
485 378 m 1
 517 378 l 1
 517 -97 l 0
 517 -134.637828626 487.595501685 -165 448 -165 c 0
 181 -165 l 0
 142.856961201 -165 116 -128.898827609 116 -93 c 0
 116 185 l 1
 148 185 l 1
 148 -93 l 0
 148 -115.101172391 165.143038799 -133 181 -133 c 0
 448 -133 l 0
 470.404498315 -133 485 -117.362171374 485 -97 c 0
 485 378 l 1
EndSplineSet
EndChar

StartChar: uni0635
Encoding: 1589 1589 6
Width: 1000
VWidth: 0
Flags: HW
LayerCount: 2
Back
SplineSet
483 69 m 17
 587 213 687 362 803 319 c 0
 853 298 878 253 880 171 c 1
 882 104 l 2
 883 75 860 52 829 52 c 2
 457 52 l 1
457 277 m 1
 457 -87 l 2
 457 -116 435 -138 404 -138 c 2
 137 -137 l 2
 109 -137 88 -110 88 -81 c 2
 88 198 l 1
EndSplineSet
Fore
SplineSet
483 69 m 1
 470.029132346 78.3678488615 l 1
 570.653257186 217.693560179 676.301717636 383.029656865 808.881153758 333.883831406 c 1
 866.912324584 309.510739659 893.924676105 256.283372651 895.994178686 171.433766813 c 1
 897.991771707 104.514400605 l 1
 899.3180522 66.0522663251 868.217617288 36 829 36 c 0
 457 36 l 1
 457 68 l 1
 467 68 l 0
 468 68 483 69 483 69 c 1
502.00698467 68 m 1
 829 68 l 0
 851.782757752 68 866.680881325 83.9786614524 866.00950401 103.448603587 c 0
 864.007123776 170.52260071 l 0
 862.081917311 249.456065757 839.893093998 285.843474032 797.121912749 304.115068399 c 1
 699.656009326 339.58533605 607.348988197 214.207797148 502.00698467 68 c 1
441 277 m 1
 473 277 l 1
 473 -87 l 0
 473 -124.929618745 443.205106332 -154 403.970037558 -154 c 1
 136.970037558 -153 l 1
 97.8438436562 -153 72 -116.619149298 72 -81 c 0
 72 198 l 1
 104 198 l 1
 104 -81 l 0
 104 -103.380850702 120.181199677 -121 137 -121 c 0
 404.059924673 -122.000112218 l 0
 426.770178641 -122.000112218 441 -107.070259692 441 -87 c 0
 441 277 l 1
EndSplineSet
EndChar

StartChar: uni0637
Encoding: 1591 1591 7
Width: 1000
VWidth: 0
Flags: HW
LayerCount: 2
Back
SplineSet
360 70 m 17
 464 214 564 363 680 320 c 0
 730 299 754 254 756 172 c 1
 759 104 l 2
 760 75 737 53 706 53 c 2
 241 53 l 1
373 661 m 1
 373 88 l 1
EndSplineSet
Fore
SplineSet
360 70 m 1
 347.029132346 79.3678488615 l 1
 447.653257186 218.693560179 553.301717636 384.029656865 685.881153758 334.883831406 c 1
 744.04618209 310.454519507 769.932059449 256.980655543 771.991399455 172.547715299 c 1
 774.987843764 104.628310944 l 1
 776.331317931 65.6675601013 744.794673892 37 706 37 c 0
 241 37 l 1
 241 69 l 1
 344 69 l 0
 345 69 360 70 360 70 c 1
379.00698467 69 m 1
 706 69 l 0
 729.205326108 69 743.668682069 84.3324398987 743.012156236 103.371689056 c 1
 740.008600545 171.452284701 l 1
 738.07516577 250.723110475 716.743981352 286.903397851 674.121884632 305.115078631 c 1
 576.656033081 340.585327405 484.348986781 215.207795182 379.00698467 69 c 1
357 661 m 1
 389 661 l 1
 389 88 l 1
 357 88 l 1
 357 661 l 1
EndSplineSet
EndChar

StartChar: uni0639
Encoding: 1593 1593 8
Width: 1000
VWidth: 0
Flags: HW
LayerCount: 2
Back
SplineSet
428.028320312 422.493164062 m 5
 428.028320312 422.493164062 l 5
665 -220 m 1
 377 -220 l 2
 353 -220 335 -200 335 -173 c 2
 335 4 l 2
 336 30 348 52 379 52 c 2
 665 53 l 1
626 255 m 0
 609 262 593 268 578 272 c 0
 422 316 346 217 497 53 c 0
EndSplineSet
Fore
SplineSet
428.028320312 422.493164062 m 1
665 -204 m 1
 665 -236 l 1
 377 -236 l 0
 342.919694109 -236 319 -207.108873758 319 -173 c 0
 319 4.30757860025 l 1
 320.188677152 35.2131845625 337.16151727 68 378.972028058 68 c 1
 664.944056286 68.9999021966 l 1
 665.055943714 37.0000978034 l 1
 379.055943714 36.0000978034 l 0
 358.975584865 36.0000978034 352.065250997 25.6609812855 351 3.7062224038 c 1
 351 -173 l 0
 351 -192.891126242 363.080305891 -204 377 -204 c 0
 665 -204 l 1
632.091996884 269.794849576 m 1
 619.908003116 240.205150424 l 1
 603.13200632 247.112913811 587.91485852 252.796918052 573.766800842 256.569733433 c 1
 511.732110183 274.066697465 467.768754223 266.306563124 447.324043705 247.510385188 c 0
 420.25306977 222.622243947 419.947287666 160.307924874 508.770603872 63.8375681996 c 1
 485.229396128 42.1624318004 l 1
 396.026439756 139.045112892 375.459204518 224.908883288 425.666320989 271.067614371 c 0
 459.03643666 301.746974264 516.189072083 306.058097281 582.233199158 287.430266567 c 1
 598.08514148 283.203081948 614.86799368 276.887086189 632.091996884 269.794849576 c 1
EndSplineSet
EndChar

StartChar: uni0644
Encoding: 1604 1604 9
Width: 1000
VWidth: 0
Flags: HW
LayerCount: 2
Back
SplineSet
684 696 m 1
 684 -42 l 2
 684 -69 664 -96 630 -96 c 2
 371 -96 l 2
 338 -96 316 -75 316 -43 c 2
 316 146 l 1
EndSplineSet
Fore
SplineSet
668 696 m 1
 700 696 l 1
 700 -42 l 0
 700 -76.54281091 673.778493012 -112 630 -112 c 0
 371 -112 l 0
 330.252075858 -112 300 -83.8032462201 300 -43 c 0
 300 146 l 1
 332 146 l 1
 332 -43 l 0
 332 -66.1967537799 345.747924142 -80 371 -80 c 0
 630 -80 l 0
 654.221506988 -80 668 -61.45718909 668 -42 c 0
 668 696 l 1
EndSplineSet
EndChar

StartChar: uni0643
Encoding: 1603 1603 10
Width: 1000
VWidth: 0
Flags: HW
LayerCount: 2
Back
SplineSet
688 659 m 1
 688 107 l 2
 688 80 668 53 634 53 c 2
 312 53 l 1
549 430 m 1
 450 430 l 2
 430 430 435 421 439 412 c 2
 475 336 l 2
 479 327 485 319 468 319 c 2
 357 319 l 1
EndSplineSet
Fore
SplineSet
672 659 m 1
 704 659 l 1
 704 107 l 0
 704 72.45718909 677.778493012 37 634 37 c 0
 312 37 l 1
 312 69 l 1
 634 69 l 0
 658.221506988 69 672 87.54281091 672 107 c 0
 672 659 l 1
549 446 m 1
 549 414 l 1
 455.756880877 414 l 1
 489.542515359 342.67477165 l 1
 491.080588491 339.214107103 494.927867429 335.100917972 495.357900494 325.331234741 c 0
 496.156030834 307.198953224 476.938763917 303 468 303 c 0
 357 303 l 1
 357 335 l 1
 457.769434912 335 l 1
 424.457484641 405.32522835 l 1
 424.070326445 406.196334292 408.822122931 433.641853179 433.742796905 443.47429919 c 0
 439.019778922 445.556331194 444.143893014 446 450 446 c 0
 549 446 l 1
EndSplineSet
EndChar

StartChar: uni0645
Encoding: 1605 1605 11
Width: 1000
VWidth: 0
Flags: HW
LayerCount: 2
Back
SplineSet
291 53 m 1
 385 53 l 2
 427 53 442 81 443 107 c 2
 443 238 l 2
 442 342 570 371 637 301 c 0
 785 145 682 53 555 53 c 2
 457 53 l 1
EndSplineSet
Fore
SplineSet
291 37 m 1
 291 69 l 1
 385 69 l 0
 417.462338563 69 426.043739332 87.753171361 427 107.309997704 c 1
 427 237.923078701 l 1
 426.664209265 272.8453151 439.626968929 301.843872781 460.373550516 321.911067905 c 0
 508.782956202 368.735215086 595.698146789 367.290736758 648.583107542 312.037792687 c 1
 701.701245431 256.048404102 725.689880356 206.041352808 725.888952664 162.35560147 c 0
 726.272694997 78.1446314272 640.47841411 37 555 37 c 0
 457 37 l 1
 457 69 l 1
 555 69 l 0
 634.905914248 69 694.146050826 105.86336033 693.889284907 162.209781666 c 0
 693.745113265 193.847765617 675.591722488 237.075224308 625.392580824 289.987833089 c 0
 584.29386945 332.926785271 517.088652054 332.248902336 482.621229258 298.91018117 c 0
 468.136735229 284.90000958 458.739199826 265.200139446 459 238.076921299 c 1
 459 106.6924214 l 1
 457.751909692 74.2420734016 436.690927569 37 385 37 c 0
 291 37 l 1
EndSplineSet
EndChar

StartChar: uni0647
Encoding: 1607 1607 12
Width: 1000
VWidth: 0
Flags: HW
LayerCount: 2
Back
SplineSet
609 364 m 5
 609 105 l 6
 609 77 585 53 557 53 c 6
 447 53 l 2
 375 53 332 129 384 186 c 0
 453 251 510 287 555 395 c 9
EndSplineSet
Fore
SplineSet
593 364 m 1
 625 364 l 1
 625 105 l 0
 625 68.0084234226 593.991432856 37 557 37 c 0
 447 37 l 0
 418.769145698 37 393.802435302 47.159268089 375.660387938 63.5913806091 c 0
 339.927591317 95.9562688141 331.85711352 152.583585747 372.179743603 196.7833918 c 0
 372.439283753 197.067887734 372.820459263 197.449885302 373.028901047 197.646243504 c 0
 443.54498032 264.074434124 496.762111279 296.829067071 540.230769231 401.153846154 c 1
 569.769230769 388.846153846 l 1
 523.332534499 277.398082797 463.21428261 238.51626599 395.427117748 174.783175498 c 1
 367.785741464 143.962475599 373.478327122 108.366557027 397.570116649 86.9249302767 c 0
 409.734698254 76.0984859369 426.712548953 69 447 69 c 0
 557 69 l 0
 576.008567144 69 593 85.9915765774 593 105 c 0
 593 364 l 1
EndSplineSet
EndChar

StartChar: uni0648
Encoding: 1608 1608 13
Width: 1000
VWidth: 0
Flags: HW
LayerCount: 2
Back
SplineSet
602 52 m 1
 441 52 l 2
 379.9921875 52 334 103 337 155 c 0
 353 335 600 387 601 233 c 2
 601 -1 l 2
 601 -75 546 -147 463 -147 c 2
 270 -147 l 1
EndSplineSet
Fore
SplineSet
617 233.051947504 m 1
 617 -1 l 0
 617 -82.2162027918 556.362077355 -163 463 -163 c 0
 270 -163 l 1
 270 -131 l 1
 463 -131 l 0
 535.637922645 -131 585 -67.7837972082 585 -1 c 0
 585 36 l 1
 441 36 l 0
 371.15540457 36 317.448471306 93.9013243491 321.040858671 156.16937202 c 1
 331.351697399 272.166307709 429.032499782 339.297222154 509.371097242 339.919774047 c 0
 566.144538582 340.359717168 616.532138028 305.102691174 617 233.051947504 c 1
585 68 m 1
 585 232.948052496 l 1
 584.652804689 286.41613043 552.514186751 308.253133435 509.619061024 307.92073478 c 0
 445.214062123 307.42165395 362.127953796 252.110716887 352.958094513 153.826950695 c 1
 350.967501785 112.094483562 388.517375177 68 441 68 c 0
 585 68 l 1
EndSplineSet
EndChar

StartChar: uni0649
Encoding: 1609 1609 14
Width: 1000
VWidth: 0
Flags: HW
LayerCount: 2
Back
SplineSet
739 53 m 1
 601 53 l 2
 556 53 531 15 564 -25 c 2
 675 -159 l 2
 692 -180 682 -221 632 -221 c 2
 402 -221 l 2
 338 -221 261 -187 261 -96 c 2
 261 100 l 1
EndSplineSet
Fore
SplineSet
739 69 m 1
 739 37 l 1
 601 37 l 0
 588.569124669 37 579.17472869 33.3661604046 573.342306004 28.594677643 c 0
 563.641245752 20.6582772391 558.738375427 6.51982064603 576.331816294 -14.8055622233 c 1
 687.379170096 -148.862728075 l 1
 694.879720981 -158.128114462 698.59269032 -169.355565035 698.661382198 -180.842920673 c 0
 698.835574481 -209.973128988 674.461167825 -237 632 -237 c 0
 402 -237 l 0
 333.746443759 -237 245 -199.180065064 245 -96 c 0
 245 100 l 1
 277 100 l 1
 277 -96 l 0
 277 -174.819934936 342.253556241 -205 402 -205 c 0
 632 -205 l 0
 660.404973908 -205 666.720628632 -190.846388651 666.661954307 -181.034270262 c 0
 666.634912135 -176.5120027 665.02579083 -172.10810601 662.620829904 -169.137271925 c 1
 551.678364406 -35.2067279917 l 0
 525.953985456 -4.02566259723 527.686747007 32.5882540302 553.07996717 53.3623506263 c 0
 565.646481096 63.6429677548 582.475461319 69 601 69 c 0
 739 69 l 1
EndSplineSet
EndChar

StartChar: uni0661
Encoding: 1633 1633 15
Width: 1000
VWidth: 0
Flags: HW
LayerCount: 2
Back
SplineSet
500 659 m 1
 500 0 l 1
EndSplineSet
Fore
SplineSet
484 659 m 1
 516 659 l 1
 516 0 l 1
 484 0 l 1
 484 659 l 1
EndSplineSet
EndChar

StartChar: uni0662
Encoding: 1634 1634 16
Width: 1000
VWidth: 0
Flags: HW
LayerCount: 2
Back
SplineSet
613 604 m 1
 439 604 l 2
 410 604 387 581 387 550 c 2
 387 -0 l 1
EndSplineSet
Fore
SplineSet
613 620 m 1
 613 588 l 1
 439 588 l 0
 419.048556837 588 403 572.69040138 403 550 c 0
 403 0 l 1
 371 0 l 1
 371 550 l 0
 371 589.30959862 400.951443163 620 439 620 c 0
 613 620 l 1
EndSplineSet
EndChar

StartChar: uni0663
Encoding: 1635 1635 17
Width: 1000
VWidth: 0
Flags: HW
LayerCount: 2
Back
SplineSet
684 660 m 1
 684 477 l 2
 684 448 662 425 631 425 c 2
 508 425 l 1
500 660 m 1
 500 477 l 2
 500 448 478 425 447 425 c 2
 317 425 l 1
316 660 m 1
 316 0 l 1
EndSplineSet
Fore
SplineSet
668 660 m 1
 700 660 l 1
 700 477 l 0
 700 439.362171374 670.595501685 409 631 409 c 0
 508 409 l 1
 508 441 l 1
 631 441 l 0
 653.404498315 441 668 456.637828626 668 477 c 0
 668 660 l 1
484 660 m 1
 516 660 l 1
 516 477 l 0
 516 439.362171374 486.595501685 409 447 409 c 0
 317 409 l 1
 317 441 l 1
 447 441 l 0
 469.404498315 441 484 456.637828626 484 477 c 0
 484 660 l 1
300 660 m 1
 332 660 l 1
 332 0 l 1
 300 0 l 1
 300 660 l 1
EndSplineSet
EndChar

StartChar: uni0664
Encoding: 1636 1636 18
Width: 1000
VWidth: 0
Flags: HW
LayerCount: 2
Back
SplineSet
546 608 m 1
 389 492 l 2
 360 471 336 455 381 424 c 2
 509 336 l 1
 375 143 l 2
 355 115 318 53 373 53 c 2
 656 52 l 1
EndSplineSet
Fore
SplineSet
536.492047818 620.868521488 m 1
 555.507952182 595.131478512 l 1
 398.446271604 479.0859056 l 1
 386.362041679 470.335256344 376.753545398 462.902418667 373.467208248 458.275648891 c 0
 372.07674915 456.318048733 365.086757398 454.391533383 390.064461166 437.184670787 c 0
 518.064461166 349.184670787 l 0
 525.220914153 344.264609359 527.190081499 334.14452718 522.142805613 326.874943253 c 0
 388.081854217 133.78715505 l 1
 376.062695582 116.96033296 360.176940435 88.2026700647 360.163342994 75.4307353456 c 0
 360.159197654 71.537060917 357.480941324 69 373.028268463 69 c 1
 656.05653675 67.9999001121 l 1
 655.94346325 36.0000998879 l 1
 372.94346325 37.0000998879 l 0
 345.80369052 37.0000998879 328.139637874 53.1817965507 328.163361129 75.4648036267 c 0
 328.193622265 103.888773807 349.478705692 134.797628823 361.918145783 152.21284495 c 1
 486.690036097 331.921612344 l 1
 371.935538834 410.815329213 l 0
 343.475742602 430.420966617 331.698641475 454.730779392 347.378494877 476.806138218 c 0
 355.771845227 488.622971958 368.075458321 496.602243656 379.553728396 504.9140944 c 1
 536.492047818 620.868521488 l 1
EndSplineSet
EndChar

StartChar: uni0665
Encoding: 1637 1637 19
Width: 1000
VWidth: 0
Flags: HW
LayerCount: 2
Back
SplineSet
557 567 m 0
 682 490 791 42 501 40 c 0
 211 38 317 484 439 564 c 0
 477 589 519 590 557 567 c 0
EndSplineSet
Fore
SplineSet
548.661631797 553.344395648 m 0
 515.752553761 573.263048143 481.067147698 572.523644891 447.793864024 550.633326684 c 0
 365.006856812 496.346764578 285.294073729 240.239505748 363.91071647 120.478484395 c 0
 389.650894653 81.2670665386 431.748940734 55.5227869827 500.889657796 55.9996195142 c 0
 626.661023582 56.8670082437 670.094239761 145.770214908 669.235945602 255.796298028 c 0
 668.273159658 379.217348117 606.270593472 517.857275256 548.661631797 553.344395648 c 0
565.338368203 580.655604352 m 0
 639.413138041 535.025546132 700.215913534 386.680630375 701.234972001 256.045916815 c 0
 702.157341504 137.805914238 649.832719307 25.0260520521 501.110342204 24.0003804858 c 0
 423.096773552 23.4623558744 369.022317429 54.3795803186 337.159588586 102.917813652 c 0
 246.340653455 241.267252782 330.899428902 512.247521136 430.206135976 577.366673316 c 0
 472.932852302 605.476355109 522.230634271 606.747127522 565.338368203 580.655604352 c 0
EndSplineSet
EndChar

StartChar: uni0666
Encoding: 1638 1638 20
Width: 1000
VWidth: 0
Flags: HW
LayerCount: 2
Back
SplineSet
340 604 m 1
 608 604 l 2
 637 604 660 581 660 550 c 2
 660 -1 l 1
EndSplineSet
Fore
SplineSet
340 588 m 1
 340 620 l 1
 608 620 l 0
 646.048556837 620 676 589.30959862 676 550 c 0
 676 -1 l 1
 644 -1 l 1
 644 550 l 0
 644 572.69040138 627.951443163 588 608 588 c 0
 340 588 l 1
EndSplineSet
EndChar

StartChar: uni0667
Encoding: 1639 1639 21
Width: 1000
VWidth: 0
Flags: HW
LayerCount: 2
Back
SplineSet
694 638 m 1
 542 57 l 0
 535 39 502 39 492 57 c 0
 306 638 l 1
EndSplineSet
Fore
SplineSet
678.520956687 642.049594808 m 1
 709.479043313 633.950405192 l 1
 557.479043313 52.9504051918 l 0
 557.33045932 52.382462427 557.071877361 51.611780835 556.912074745 51.2008598215 c 0
 553.850439255 43.3280828491 548.120373506 37.4327072021 541.831824306 33.6927237072 c 0
 522.507007014 22.1996916231 491.187844278 25.5158638478 478.013483582 49.2297131011 c 0
 477.519676991 50.118564965 477.002371269 51.3702945182 476.76182282 52.1216851025 c 0
 290.76182282 633.121685103 l 1
 321.23817718 642.878314897 l 1
 506.604426307 63.8579345593 l 1
 511.037157085 58.5020925444 524.697920697 59.3794395722 526.87105088 62.3877837971 c 1
 678.520956687 642.049594808 l 1
EndSplineSet
EndChar

StartChar: uni0668
Encoding: 1640 1640 22
Width: 1000
VWidth: 0
Flags: HW
LayerCount: 2
Back
SplineSet
306 7 m 1
 458 588 l 0
 465 606 498 606 508 588 c 0
 694 7 l 1
EndSplineSet
Fore
SplineSet
321.479043313 2.95040519175 m 1
 290.520956687 11.0495948082 l 1
 442.520956687 592.049594808 l 0
 442.66954068 592.617537573 442.928122639 593.388219165 443.087925255 593.799140178 c 0
 446.149560745 601.671917151 451.879626494 607.567292798 458.168175694 611.307276293 c 0
 477.492992986 622.800308377 508.812155722 619.484136152 521.986516418 595.770286899 c 0
 522.480323009 594.881435035 522.997628731 593.629705482 523.23817718 592.878314897 c 0
 709.23817718 11.8783148975 l 1
 678.76182282 2.12168510253 l 1
 493.395573693 581.142065441 l 1
 488.962842915 586.497907456 475.302079303 585.620560428 473.12894912 582.612216203 c 1
 321.479043313 2.95040519175 l 1
EndSplineSet
EndChar

StartChar: uni0669
Encoding: 1641 1641 23
Width: 1000
VWidth: 0
Flags: HW
LayerCount: 2
Back
SplineSet
640 0 m 1
 640 475 l 2
 640 609 488 628 425 584 c 0
 371 555 335 470 382 393 c 0
 436 315 564 334 630 335 c 9
EndSplineSet
Fore
SplineSet
624 318.86088891 m 1
 560.23389626 317.007838353 428.316212985 297.98966871 368.844924934 383.892640339 c 0
 368.721568423 384.070821966 368.49543919 384.414411849 368.343108312 384.663975203 c 0
 316.800522043 469.106084623 354.256367883 562.960003202 416.622571782 597.661147882 c 1
 472.108487957 635.254584867 582.639045101 632.467425989 632.561529596 558.068993506 c 0
 647.310466911 536.088961299 656 508.223396158 656 475 c 0
 656 0 l 1
 624 0 l 1
 624 318.86088891 l 1
624 350.873660434 m 1
 624 475 l 0
 624 503.333865927 616.660422204 524.842362874 605.203262004 541.392002812 c 0
 567.101924658 596.428626478 475.799611456 599.963157763 434.161418198 570.882514852 c 0
 433.672443186 570.541008495 432.964872764 570.116136356 432.570026207 569.904089131 c 0
 386.234153424 545.020009303 354.270107471 470.151805739 395.414192949 401.733408489 c 1
 441.417617155 336.496534466 552.826236916 348.898574313 624 350.873660434 c 1
EndSplineSet
EndChar

StartChar: uni06BA
Encoding: 1722 1722 24
Width: 1000
VWidth: 0
Flags: HW
LayerCount: 2
Back
SplineSet
682 188 m 1
 682 -83 l 2
 682 -109 660 -135 631 -135 c 2
 492 -135 l 2
 411 -135 318 -73 318 -3 c 2
 318 187 l 1
EndSplineSet
Fore
SplineSet
666 188 m 1
 698 188 l 1
 698 -83 l 0
 698 -117.184931268 669.871359417 -151 631 -151 c 0
 492 -151 l 0
 406.019831126 -151 302 -86.7660224907 302 -3 c 0
 302 187 l 1
 334 187 l 1
 334 -3 l 0
 334 -59.2339775093 415.980168874 -119 492 -119 c 0
 631 -119 l 0
 650.128640583 -119 666 -100.815068732 666 -83 c 0
 666 188 l 1
EndSplineSet
EndChar

StartChar: uni06A1
Encoding: 1697 1697 25
Width: 1000
VWidth: 0
Flags: HW
LayerCount: 2
Back
SplineSet
66 99 m 1
 66 -53 l 2
 66 -111 108 -147 165 -147 c 2
 657 -147 l 2
 691 -147 712 -120 712 -93 c 2
 712 191 l 2
 712 319 570 344 498 298 c 0
 449 266 414 183 454 117 c 0
 501 39 571 53 672 53 c 10
 703 53 l 29
EndSplineSet
Fore
SplineSet
696 37 m 1
 672 37 l 0
 575.081645909 37 492.977448898 21.31286006 440.295640187 108.742244728 c 0
 394.826226744 183.766776911 434.116470376 275.389858059 489.318357551 311.440070092 c 1
 551.604287517 351.233858681 659.670796583 344.628890909 706.67606878 270.19330494 c 0
 720.174993978 248.816970753 728 222.212383417 728 191 c 0
 728 -93 l 0
 728 -127.966798866 700.493870231 -163 657 -163 c 0
 165 -163 l 0
 100.721250719 -163 50 -120.374580144 50 -53 c 0
 50 99 l 1
 82 99 l 1
 82 -53 l 0
 82 -101.625419856 115.278749281 -131 165 -131 c 0
 657 -131 l 0
 681.506129769 -131 696 -112.033201134 696 -93 c 0
 696 37 l 1
696 69 m 1
 696 191 l 0
 696 216.905896153 689.686984285 237.164544451 679.619328195 253.107264179 c 0
 644.567467957 308.61392618 556.266680225 316.239259598 506.681642449 284.559929908 c 1
 463.883633581 256.610209831 433.182231081 182.219368927 467.693785015 125.275304935 c 1
 509.032085974 56.6713161099 566.91472755 69 672 69 c 0
 696 69 l 1
EndSplineSet
EndChar

StartChar: uni06D2
Encoding: 1746 1746 26
Width: 1000
VWidth: 0
Flags: HW
LayerCount: 2
Back
SplineSet
897 -145 m 1
 271 -145 l 2
 55 -145 68 50 194 83 c 0
 304 112 292 159 316 193 c 0
 389 297 500 254 554 220 c 9
EndSplineSet
Fore
SplineSet
897 -129 m 1
 897 -161 l 1
 271 -161 l 0
 165.975406614 -161 106.251112811 -115.724506277 90.9760298457 -58.0479688747 c 0
 73.8204190726 6.72917365657 114.77069715 78.7890986774 189.921184491 98.4713691716 c 0
 294.823139497 126.127339128 273.134726826 160.019065732 302.916300042 202.209627788 c 1
 383.777545299 317.409210072 507.376137589 268.263091009 562.525012315 233.539725441 c 1
 545.474987685 206.460274559 l 1
 492.624124921 239.736743706 394.212312125 276.576340231 329.095868251 183.807707862 c 0
 310.85318887 157.963912072 313.18327735 97.8743525864 198.078815509 67.5286308284 c 0
 138.772927012 51.9961362219 109.605214908 -3.39603550963 121.909566788 -49.8555155048 c 0
 132.388790797 -89.4235726384 174.521237681 -129 271 -129 c 0
 897 -129 l 1
EndSplineSet
EndChar

StartChar: uni0664.alt
Encoding: 65536 -1 28
Width: 1000
VWidth: 0
Flags: HW
LayerCount: 2
Back
SplineSet
544 615 m 1
 369 487 l 2
 330 459 342 436 371 405 c 1
 504 284 l 1
 360 124 l 2
 335 98 324 71 351 53 c 1
 665 53 l 1
EndSplineSet
Fore
SplineSet
534.554184773 627.914200506 m 1
 553.445815227 602.085799494 l 1
 378.388745228 474.044056866 l 1
 374.985107673 471.600419647 372.335867502 469.449637209 370.035257532 467.337821453 c 0
 353.187229134 451.87238737 356.597942272 443.963511728 382.247722598 416.397840394 c 1
 514.767193072 295.835013872 l 0
 521.513629727 289.697278269 521.149281403 279.137203253 515.89270634 273.296564294 c 0
 371.716202833 113.100449286 l 1
 347.774955502 88.2015520621 348.275555658 76.3581459078 356.358239744 69 c 1
 665 69 l 1
 665 37 l 1
 351 37 l 0
 348.446495717 37 344.762007286 37.9290550069 342.12479686 39.6871952906 c 0
 311.103538571 60.36803415 316.577134181 92.1730909556 332.360863037 115.508463958 c 0
 336.839633672 122.130079441 342.626481962 129.015942901 348.283797167 134.899550714 c 1
 481.461224956 282.874470479 l 1
 360.232806928 393.164986128 l 0
 360.007114316 393.370315496 359.595684524 393.770146583 359.315657384 394.06948594 c 0
 333.295722004 421.883899621 311.636302918 457.168915633 348.395797429 490.911827613 c 0
 351.732159709 493.974399072 355.586320899 497.066247019 359.611254772 499.955943134 c 1
 534.554184773 627.914200506 l 1
EndSplineSet
EndChar

StartChar: uni0647.medi
Encoding: 65537 -1 29
Width: 1000
VWidth: 0
Flags: HW
LayerCount: 2
Back
SplineSet
540 -249 m 1
 540 1 l 2
 540 29 564 53 592 53 c 2
 732 53 l 1
509 -262 m 0
 489 -158 449 -150 413 -92 c 0
 379 -37 396 51 346 53 c 1
 206 53 l 1
EndSplineSet
Fore
SplineSet
556 -249 m 1
 524 -249 l 1
 524 1 l 0
 524 37.9915765774 555.008567144 69 592 69 c 0
 732 69 l 1
 732 37 l 1
 592 37 l 0
 572.991432856 37 556 20.0084234226 556 1 c 0
 556 -249 l 1
524.712103152 -258.978441702 m 1
 493.287896848 -265.021558298 l 1
 474.093827316 -165.212396729 439.158865839 -164.48443076 399.390486887 -100.413153561 c 0
 355.209066693 -28.9432091281 377.979864252 35.0667528166 345.658999335 37 c 1
 206 37 l 1
 206 69 l 1
 346.319872102 69 l 1
 414.049385071 66.2908194813 402.571304064 -44.7015082729 426.609513113 -83.5868464394 c 0
 458.841134161 -135.51556924 503.906172684 -150.787603271 524.712103152 -258.978441702 c 1
EndSplineSet
EndChar

StartChar: u0644_u0627.isol
Encoding: 65538 -1 30
Width: 1000
VWidth: 0
Flags: HW
LayerCount: 2
Back
SplineSet
438 680 m 1
 569 231 l 1
643 660 m 1
 643 107 l 2
 643 75 620 53 592 53 c 2
 357 53 l 1
505 263 m 1
 507 161 453 123 385 90 c 1
 468 90 l 1
 559 141 597 200 608 263 c 9
 505 263 l 1
EndSplineSet
Fore
SplineSet
552 235 m 1
 554 133 449 76 424 62 c 1
 446 62 l 1
 537 113 573 172 584 235 c 9
 552 235 l 1
423 676 m 1
 554 227 l 1
 584 235 l 1
 453 684 l 1
 423 676 l 1
607 660 m 1
 639 660 l 1
 639 107 l 0
 639 67 609 37 572 37 c 0
 357 37 l 1
 357 69 l 1
 572 69 l 0
 591 69 607 83 607 107 c 0
 607 660 l 1
EndSplineSet
EndChar

StartChar: u0644_u0627.isol.alt1
Encoding: 65539 -1 31
Width: 1000
VWidth: 0
Flags: HW
LayerCount: 2
Back
SplineSet
620 659 m 1
 620 109 l 2
 620 77 598 53 570 53 c 2
 420 53 l 1
438 658 m 1
 438 157 l 1
EndSplineSet
Fore
SplineSet
604 659 m 1
 636 659 l 1
 636 109 l 0
 636 69.7566597734 608.112088481 37 570 37 c 0
 420 37 l 1
 420 69 l 1
 570 69 l 0
 587.887911519 69 604 84.2433402266 604 109 c 0
 604 659 l 1
422 658 m 1
 454 658 l 1
 454 157 l 1
 422 157 l 1
 422 658 l 1
EndSplineSet
EndChar

StartChar: u0644_u0627.isol.alt2
Encoding: 65540 -1 32
Width: 1000
VWidth: 0
Flags: HW
LayerCount: 2
Back
SplineSet
665 660 m 1
 665 107 l 2
 665 75 643 53 615 53 c 2
 335 53 l 1
483 564 m 1
 483 59 l 1
EndSplineSet
Fore
SplineSet
649 660 m 1
 681 660 l 1
 681 107 l 0
 681 67.1911045021 652.308584326 37 615 37 c 0
 335 37 l 1
 335 69 l 1
 615 69 l 0
 633.691415674 69 649 82.8088954979 649 107 c 0
 649 660 l 1
467 564 m 1
 499 564 l 1
 499 59 l 1
 467 59 l 1
 467 564 l 1
EndSplineSet
EndChar

StartChar: uni0648.fina
Encoding: 65541 -1 33
Width: 1000
VWidth: 0
Flags: HW
LayerCount: 2
Back
SplineSet
730 52 m 1
 441 52 l 1
 380 53 334 103 337 155 c 1
 353 335 600 387 601 233 c 2
 601 -1 l 2
 601 -75 546 -147 463 -147 c 2
 270 -147 l 1
EndSplineSet
Fore
SplineSet
730 68 m 1
 730 36 l 1
 617 36 l 1
 617 -1 l 0
 617 -82.2162027918 556.362077355 -163 463 -163 c 0
 270 -163 l 1
 270 -131 l 1
 463 -131 l 0
 535.637922645 -131 585 -67.7837972082 585 -1 c 0
 585 36 l 1
 440.868861269 36 l 1
 371.222469029 37.1417441351 317.43811031 93.7217337565 321.040858671 156.16937202 c 1
 331.351697399 272.166307709 429.032499782 339.297222154 509.371097242 339.919774047 c 0
 566.144538582 340.359717168 616.532138028 305.102691174 617 233.051947504 c 1
 617 68 l 1
 730 68 l 1
585 68 m 1
 585 232.948052496 l 1
 584.652804689 286.41613043 552.514186751 308.253133435 509.619061024 307.92073478 c 0
 445.214047597 307.421653837 362.127992037 252.111126758 352.958048708 153.826459756 c 1
 350.977783979 112.271125107 388.465964591 68.8633635105 441.131138731 68 c 1
 585 68 l 1
EndSplineSet
EndChar

StartChar: uni0631.fina
Encoding: 65542 -1 34
Width: 1000
VWidth: 0
Flags: HW
LayerCount: 2
Back
SplineSet
543 187 m 1
 543 -1 l 2
 543 -83 525 -148 444 -148 c 2
 372 -148 l 1
698 53 m 1
 551 53 l 1
EndSplineSet
Fore
SplineSet
527 187 m 1
 559 187 l 1
 559 -1 l 0
 559 -83.1111364844 539.268437347 -164 444 -164 c 0
 372 -164 l 1
 372 -132 l 1
 444 -132 l 0
 510.731562653 -132 527 -82.8888635156 527 -1 c 0
 527 187 l 1
698 69 m 1
 698 37 l 1
 551 37 l 1
 551 69 l 1
 698 69 l 1
EndSplineSet
EndChar

StartChar: uni0644.int
Encoding: 65543 -1 35
Width: 1000
VWidth: 0
Flags: HW
LayerCount: 2
Back
SplineSet
570 659 m 1
 570 107 l 2
 570 80 551 53 517 53 c 2
 430 53 l 1
EndSplineSet
Fore
SplineSet
554 659 m 1
 586 659 l 1
 586 107 l 0
 586 72.892785395 561.059325656 37 517 37 c 0
 430 37 l 1
 430 69 l 1
 517 69 l 0
 540.940674344 69 554 87.107214605 554 107 c 0
 554 659 l 1
EndSplineSet
EndChar

StartChar: uni0633.init
Encoding: 65544 -1 36
Width: 1000
VWidth: 0
Flags: HW
LayerCount: 2
Back
SplineSet
780 377 m 1
 780 105 l 2
 780 76 758 53 727 53 c 2
 611 53 l 1
606 377 m 1
 606 104 l 2
 606 75 584 53 553 53 c 2
 441 53 l 1
433 377 m 1
 433 105 l 2
 433 76 411 53 380 53 c 2
 201 53 l 1
EndSplineSet
Fore
SplineSet
764 377 m 1
 796 377 l 1
 796 105 l 0
 796 67.3621713737 766.595501685 37 727 37 c 0
 611 37 l 1
 611 69 l 1
 727 69 l 0
 749.404498315 69 764 84.6378286263 764 105 c 0
 764 377 l 1
590 377 m 1
 622 377 l 1
 622 104 l 0
 622 66.0703812547 592.180391131 37 553 37 c 0
 441 37 l 1
 441 69 l 1
 553 69 l 0
 575.819608869 69 590 83.9296187453 590 104 c 0
 590 377 l 1
417 377 m 1
 449 377 l 1
 449 105 l 0
 449 67.3621713737 419.595501685 37 380 37 c 0
 201 37 l 1
 201 69 l 1
 380 69 l 0
 402.404498315 69 417 84.6378286263 417 105 c 0
 417 377 l 1
EndSplineSet
EndChar

StartChar: uni066E.init
Encoding: 65545 -1 37
Width: 1000
VWidth: 0
Flags: HW
LayerCount: 2
Back
SplineSet
671 377 m 1
 671 104 l 2
 671 75 649 53 618 53 c 2
 329 53 l 1
EndSplineSet
Fore
SplineSet
655 377 m 1
 687 377 l 1
 687 104 l 0
 687 66.0703812547 657.180391131 37 618 37 c 0
 329 37 l 1
 329 69 l 1
 618 69 l 0
 640.819608869 69 655 83.9296187453 655 104 c 0
 655 377 l 1
EndSplineSet
EndChar

StartChar: uni06BA.fina
Encoding: 65546 -1 38
Width: 1000
VWidth: 0
Flags: HW
LayerCount: 2
Back
SplineSet
759 53 m 1
 617 53 l 1
605 188 m 1
 605 -83 l 2
 605 -109 583 -135 554 -135 c 2
 415 -135 l 2
 334 -135 241 -73 241 -3 c 2
 241 187 l 1
EndSplineSet
Fore
SplineSet
759 69 m 1
 759 37 l 1
 617 37 l 1
 617 69 l 1
 759 69 l 1
589 188 m 1
 621 188 l 1
 621 -83 l 0
 621 -117.184931268 592.871359417 -151 554 -151 c 0
 415 -151 l 0
 329.019831126 -151 225 -86.7660224907 225 -3 c 0
 225 187 l 1
 257 187 l 1
 257 -3 l 0
 257 -59.2339775093 338.980168874 -119 415 -119 c 0
 554 -119 l 0
 573.128640583 -119 589 -100.815068732 589 -83 c 0
 589 188 l 1
EndSplineSet
EndChar

StartChar: uni0649.fina.alt1
Encoding: 65547 -1 39
Width: 1000
VWidth: 0
Flags: HW
LayerCount: 2
Back
SplineSet
759 53 m 1
 506 53 l 1
603 58 m 1
 603 -85 l 2
 603 -106 587 -135 556 -135 c 2
 419 -135 l 2
 337 -135 241 -79 241 4 c 2
 241 186 l 1
EndSplineSet
Fore
SplineSet
759 69 m 1
 759 37 l 1
 506 37 l 1
 506 69 l 1
 759 69 l 1
587 58 m 1
 619 58 l 1
 619 -85 l 0
 619 -111.994456119 598.705134462 -151 556 -151 c 0
 419 -151 l 0
 332.506362265 -151 225 -92.5081420645 225 4 c 0
 225 186 l 1
 257 186 l 1
 257 4 l 0
 257 -65.4918579355 341.493637735 -119 419 -119 c 0
 556 -119 l 0
 575.294865538 -119 587 -100.005543881 587 -85 c 0
 587 58 l 1
EndSplineSet
EndChar

StartChar: uni0649.fina.alt2
Encoding: 65548 -1 40
Width: 1000
VWidth: 0
Flags: HW
LayerCount: 2
Back
SplineSet
856 53 m 1
 745 53 l 2
 719 53 698 72 698 98 c 2
 694 181 l 2
 691 244 631 277 563 239 c 0
 523 217 484 191 449 157 c 0
 430 141 429 105 450 86 c 0
 564 -44 l 1
 591 -71 561 -110 525 -110 c 2
 259 -110 l 2
 190 -111 144 -54 144 14 c 2
 144 217 l 1
EndSplineSet
Fore
SplineSet
856 69 m 1
 856 37 l 1
 745 37 l 0
 710.616104843 37 682.675933183 62.7132926962 681.992143779 97.7776980093 c 1
 678.018109796 180.238957609 l 0
 677.446945595 192.233405834 674.465251513 202.468180806 669.826612367 210.845601682 c 0
 654.675437978 238.208748633 618.081660428 251.452135327 570.758009203 225.006565525 c 1
 531.458525634 203.391849562 493.827066097 178.239782336 460.148570948 145.523529906 c 0
 459.889462422 145.27182448 459.511456457 144.934292009 459.306171933 144.76142083 c 0
 448.492897957 135.655505904 446.804778079 110.467756608 460.734613184 97.864572466 c 0
 461.171582704 97.4692190906 461.73792285 96.8819613782 462.029755278 96.5491700128 c 0
 575.663069682 -33.0326797463 l 1
 586.032924195 -43.8214798479 590.406181316 -55.2258279276 590.407999367 -67.4194965447 c 0
 590.412893643 -100.245405494 558.581756193 -126 525 -126 c 0
 259.115935942 -126 l 1
 179.924922015 -127.147695854 128 -60.9450603039 128 14 c 0
 128 217 l 1
 160 217 l 1
 160 14 l 0
 160 -47.0549396961 200.075077985 -94.852304146 258.884064058 -94 c 1
 525 -94 l 0
 544.033628423 -94 558.409591564 -78.1007483522 558.407999723 -67.4242676793 c 0
 558.407452084 -63.7512519612 557.28991898 -59.9173359777 552.686291501 -55.313708499 c 0
 552.51154209 -55.1389590878 552.1897864 -54.7995245574 551.970244722 -54.5491700128 c 0
 438.536451419 74.8051556842 l 1
 412.624484386 99.2562367459 410.719019548 144.556294997 438.269064194 168.882022354 c 1
 473.759577448 203.188194531 514.796694381 230.748521446 555.241990797 252.993434475 c 1
 613.228074085 285.397422195 672.350484177 272.347637928 697.821583069 226.346621498 c 0
 705.021434993 213.343629046 709.199072104 198.200222485 709.981890204 181.761042391 c 0
 713.981451957 98.7701904558 l 0
 713.990170048 98.5892900721 714 98.2446706176 714 98 c 0
 714 81.4802127633 726.880848726 69 745 69 c 0
 856 69 l 1
EndSplineSet
EndChar

StartChar: uni0639.init
Encoding: 65549 -1 41
Width: 1000
VWidth: 0
Flags: HW
LayerCount: 2
Back
SplineSet
266 53 m 1
 734 53 l 1
684 307 m 0
 401 392 309 256 507 64 c 0
EndSplineSet
Fore
SplineSet
266 37 m 1
 266 69 l 1
 734 69 l 1
 734 37 l 1
 266 37 l 1
688.602533584 322.323729462 m 1
 679.397466416 291.676270538 l 1
 548.164854504 331.09242606 465.094467586 319.155944765 434.004435258 287.110225689 c 0
 401.118881636 253.2137922 412.449958402 177.972103241 518.138333377 75.4864062952 c 1
 495.861666623 52.5135937048 l 1
 390.552229782 154.63183549 355.547547219 252.197275127 411.037137822 309.392578539 c 0
 457.434141601 357.215795104 555.412826021 362.327705231 688.602533584 322.323729462 c 1
EndSplineSet
EndChar

StartChar: uni0647.init.alt1
Encoding: 65550 -1 42
Width: 1000
VWidth: 0
Flags: HW
LayerCount: 2
Back
SplineSet
441 387 m 0
 700 383 812 257 808 105 c 0
 808 75 785 53 756 53 c 2
 192 53 l 1
364 63 m 1
 364 200 l 1
 375 308 504 329 582 210 c 0
 644 114 580 54 514 53 c 0
EndSplineSet
Fore
SplineSet
440.752925217 371.0019078 m 1
 441.247074783 402.9980922 l 1
 705.637659749 398.914839923 828.2717564 267.116253307 824 104.78951012 c 1
 824 66.3476679108 793.496654505 37 756 37 c 0
 192 37 l 1
 192 69 l 1
 756 69 l 0
 776.503345495 69 792 83.6523320892 792 105.21048988 c 1
 795.7282436 246.883746693 694.362340251 367.085160077 440.752925217 371.0019078 c 1
380 63 m 1
 348 63 l 1
 348 200 l 0
 348 200.517485477 348.04312049 201.236077334 348.082350235 201.621242106 c 0
 352.046152001 240.538568531 370.20935575 271.120277545 397.030072174 288.954804107 c 0
 453.934130916 326.793351413 539.543337944 303.960276811 595.41126861 218.725869769 c 1
 613.889274618 190.114763693 622.640396787 163.487075128 623.154181906 139.164204408 c 0
 624.526534027 74.1962985646 567.784688833 37.8130830859 514.242396421 37.0018362311 c 1
 513.757603579 68.9981637689 l 1
 555.548644501 69.6313613586 592.053712886 96.2419730404 591.16131878 138.488401902 c 0
 590.804047658 155.40181376 584.555169827 176.551902973 568.58873139 201.274130231 c 1
 518.839437175 277.173694481 452.077235582 287.129773057 414.748860128 262.308142901 c 0
 396.76225703 250.347890026 383.531584538 230.387934064 380 199.175005434 c 1
 380 63 l 1
EndSplineSet
EndChar

StartChar: uni0647.init.alt2
Encoding: 65551 -1 43
Width: 1000
VWidth: 0
Flags: HW
LayerCount: 2
Back
SplineSet
458 397 m 0
 705 397 803 276 801 105 c 0
 801 75 778 53 749 53 c 2
 199 53 l 1
350 186 m 0
 350 118 405 63 473 63 c 0
 541 63 595 118 595 186 c 0
 595 254 541 308 473 308 c 0
 405 308 350 254 350 186 c 0
EndSplineSet
Fore
SplineSet
458 381 m 1
 458 413 l 1
 711.752615943 413 819.100132494 284.467764207 817 104.906435948 c 1
 817 66.2499384782 786.496654505 37 749 37 c 0
 199 37 l 1
 199 69 l 1
 749 69 l 0
 769.503345495 69 785 83.7500615218 785 105.093564052 c 1
 786.899867506 267.532235793 698.247384057 381 458 381 c 1
334 186 m 0
 334 262.951989502 396.348080615 324 473 324 c 0
 549.776253911 324 611 262.776274464 611 186 c 0
 611 109.348092574 549.95201122 47 473 47 c 0
 396.172134324 47 334 109.172137322 334 186 c 0
366 186 m 0
 366 126.827862678 413.827865676 79 473 79 c 0
 532.04798878 79 579 126.651907426 579 186 c 0
 579 245.223725536 532.223746089 292 473 292 c 0
 413.651919385 292 366 245.048010498 366 186 c 0
EndSplineSet
EndChar

StartChar: uni0647.init
Encoding: 65552 -1 44
Width: 1000
VWidth: 0
Flags: HW
LayerCount: 2
Back
SplineSet
441 448 m 0
 700 444 812 257 808 105 c 0
 808 75 785 53 756 53 c 2
 192 53 l 1
364 63 m 1
 364 200 l 2
 364 308.55859375 504 329 582 210 c 0
 644 114 580 54 514 53 c 0
EndSplineSet
Fore
SplineSet
440.752925217 432.0019078 m 1
 441.247074783 463.9980922 l 1
 709.450701154 459.855951253 828.199302681 264.363011981 824 104.78951012 c 1
 824 66.3476679108 793.496654505 37 756 37 c 0
 192 37 l 1
 192 69 l 1
 756 69 l 0
 776.503345495 69 792 83.6523320892 792 105.21048988 c 1
 795.800697319 249.636988019 690.549298846 428.144048747 440.752925217 432.0019078 c 1
380 63 m 1
 348 63 l 1
 348 200 l 0
 348 239.789590733 365.1464006 271.303478163 392.366396193 289.350285444 c 0
 449.132721819 326.986255484 539.422579886 304.144510259 595.41126861 218.725869769 c 1
 613.889274618 190.114763693 622.640396787 163.487075128 623.154181906 139.164204408 c 0
 624.526534027 74.1962985646 567.784688833 37.8130830859 514.242396421 37.0018362311 c 1
 513.757603579 68.9981637689 l 1
 555.548644501 69.6313613586 592.053712886 96.2419730404 591.16131878 138.488401902 c 0
 590.804047658 155.40181376 584.555169827 176.551902973 568.58873139 201.274130231 c 1
 519.112631382 276.756898192 447.263231365 287.352566178 410.049008754 262.679604669 c 0
 392.236658317 250.870048915 380 230.544146063 380 200 c 0
 380 63 l 1
EndSplineSet
EndChar

StartChar: uni0647.init.alt3
Encoding: 65553 -1 45
Width: 1000
VWidth: 0
Flags: HW
LayerCount: 2
Back
SplineSet
441 482 m 0
 646 453 813 291 813 105 c 0
 813 75 790 53 761 53 c 2
 187 53 l 1
338 186 m 0
 338 118 393 63 461 63 c 0
 529 63 584 118 584 186 c 0
 584 254 529 308 461 308 c 0
 393 308 338 254 338 186 c 0
EndSplineSet
Fore
SplineSet
438.758898632 466.157731707 m 1
 443.241101368 497.842268293 l 1
 654.428342694 467.967000008 829 300.933612916 829 105 c 0
 829 66.1717353827 798.496654505 37 761 37 c 0
 187 37 l 1
 187 69 l 1
 761 69 l 0
 781.503345495 69 797 83.8282646173 797 105 c 0
 797 281.066387084 637.571657306 438.032999992 438.758898632 466.157731707 c 1
322 186 m 0
 322 262.951989502 384.348080615 324 461 324 c 0
 537.651907426 324 600 262.95201122 600 186 c 0
 600 109.172134324 537.827862678 47 461 47 c 0
 384.172134324 47 322 109.172137322 322 186 c 0
354 186 m 0
 354 126.827862678 401.827865676 79 461 79 c 0
 520.172137322 79 568 126.827865676 568 186 c 0
 568 245.04798878 520.348092574 292 461 292 c 0
 401.651919385 292 354 245.048010498 354 186 c 0
EndSplineSet
EndChar

StartChar: uni062D.init
Encoding: 65554 -1 46
Width: 1000
VWidth: 0
Flags: HW
LayerCount: 2
Back
SplineSet
245 53 m 1
 728 53 l 2
 745.255579145 53 756.360268074 71.9562469608 755 91 c 1
 714 91 677 119 644 148 c 0
 601 186 555 240 503 277 c 0
 448 316 393 329 352 339 c 0
EndSplineSet
Fore
SplineSet
245 37 m 1
 245 69 l 1
 728 69 l 0
 730.707752693 69 733.970936516 70.7421823026 736.738591136 76.5512391117 c 1
 696.039718416 83.4893676954 662.537154662 110.409523347 633.421480377 135.996024991 c 1
 589.097802691 175.165786667 543.484055999 228.557121664 493.745139563 263.948273743 c 0
 441.496946035 300.99699279 389.258454524 313.443539602 348.208701117 323.455674579 c 1
 355.791298883 354.544325421 l 1
 396.741545476 344.556460398 454.503053965 331.00300721 512.254860437 290.051726257 c 0
 566.527968971 251.434322108 612.880075659 196.853762698 654.595164744 159.989265368 c 0
 687.39452619 131.165584096 721.379153977 107 755 107 c 0
 762.186783122 107 770.32974623 100.954254346 770.959339197 92.1399527996 c 0
 772.656338467 68.3819630151 758.87038489 37 728 37 c 0
 245 37 l 1
EndSplineSet
EndChar

StartChar: uni0643.init
Encoding: 65555 -1 47
Width: 1000
VWidth: 0
Flags: HW
LayerCount: 2
Back
SplineSet
221 53 m 1
 683 53 l 2
 744 53 735.376953125 117.250976562 718 135 c 2
 438 421 l 2
 405.291992188 454.409179688 409 496 435 511 c 0
 534 572 742 619 779 620 c 0
EndSplineSet
Fore
SplineSet
221 37 m 1
 221 69 l 1
 683 69 l 0
 696.453350737 69 703.298837209 72.5935405139 707.311618112 76.4241251654 c 0
 718.866077969 87.4539664785 714.16319794 116.048008743 706.567000569 123.806853704 c 0
 426.566952671 409.806902628 l 0
 420.169767583 416.34122619 414.874190549 423.254381165 410.670196433 430.372719825 c 0
 390.331589764 464.810705736 395.736868572 506.819985431 426.803887178 524.743265396 c 1
 529.8867741 588.258983601 736.730404324 634.86342111 778.567725418 635.994159518 c 1
 779.432274582 604.005840482 l 1
 747.269595676 603.13657889 538.1132259 555.741016399 443.196112822 497.256734604 c 1
 431.069583041 490.26065973 424.042986865 470.656774403 438.223738546 446.645467506 c 0
 441.05767186 441.846960059 444.751713642 436.974786285 449.433047329 432.193097372 c 0
 729.432999431 146.193146296 l 0
 747.216299387 128.029075446 758.556275506 81.1026807399 729.407454333 53.2773322622 c 0
 718.38568999 42.755999964 702.454544 37 683 37 c 0
 221 37 l 1
EndSplineSet
EndChar

StartChar: uni0635.init
Encoding: 65556 -1 48
Width: 1000
VWidth: 0
Flags: HW
LayerCount: 2
Back
SplineSet
368 69 m 4
 472 213 572 362 688 319 c 4
 738 298 762 253 764 171 c 6
 767 104 l 6
 768 75 745 52 714 52 c 6
 203 52 l 1
341 277 m 1
 341 68 l 1
EndSplineSet
Fore
SplineSet
368 69 m 1
 355.029132346 78.3678488615 l 1
 455.653257186 217.693560179 561.301717636 383.029656865 693.881153758 333.883831406 c 1
 752.04564557 309.454744845 777.93216205 255.976448884 779.991271251 171.552971656 c 1
 782.987662578 104.633565343 l 1
 784.321487352 65.9526469173 753.216409271 36 714 36 c 0
 203 36 l 1
 203 68 l 1
 352 68 l 0
 353 68 368 69 368 69 c 1
387.00698467 68 m 1
 714 68 l 0
 736.783590729 68 751.678512648 84.0473530827 751.012337422 103.366434657 c 1
 748.008728749 170.447028344 l 1
 746.075062057 249.727362711 724.744535785 285.903160952 682.121884632 304.115078631 c 1
 584.656033081 339.585327405 492.348986781 214.207795182 387.00698467 68 c 1
325 277 m 1
 357 277 l 1
 357 68 l 1
 325 68 l 1
 325 277 l 1
EndSplineSet
EndChar

StartChar: uni0643_uni0627.isol
Encoding: 65557 -1 49
Width: 1000
VWidth: 0
Flags: HW
LayerCount: 2
Back
SplineSet
714 621 m 0
 619 588 438 519 354 432 c 1
 670 105 l 2
 692 83 674 52 640 52 c 2
 335 52 l 2
 306 52 286 78 286 106 c 2
 286 671 l 1
EndSplineSet
Fore
SplineSet
708.7498411 636.114093804 m 1
 719.2501589 605.885906196 l 1
 628.866128886 574.489348401 460.7417246 509.311457569 376.555406571 431.684053947 c 1
 681.410474976 116.216942022 l 1
 690.166671961 107.460745036 695.357574307 96.1010130574 695.636081364 84.699615319 c 0
 696.324542267 56.5157097633 670.322206418 36 640 36 c 0
 335 36 l 0
 295.27408531 36 270 71.1665284316 270 106 c 0
 270 671 l 1
 302 671 l 1
 302 106 l 0
 302 84.8334715684 316.72591469 68 335 68 c 0
 640 68 l 0
 657.714490829 68 663.779826052 78.4242784531 663.645624297 83.9181700742 c 0
 663.582245574 86.5127399937 662.750759231 89.6218237708 658.589525024 93.783057978 c 1
 342.494427876 420.88146547 l 0
 336.803382736 426.770616611 336.467184125 436.876034268 342.48957663 443.113512219 c 0
 430.725520123 534.500739409 613.251205122 602.940883412 708.7498411 636.114093804 c 1
EndSplineSet
EndChar

StartChar: uni06D2.fina
Encoding: 65558 -1 50
Width: 1000
VWidth: 0
Flags: HW
LayerCount: 2
Back
SplineSet
803 -223 m 1
 365 -223 l 2
 148.88671875 -223 162 -27 288 6 c 0
 398 35 389 79 410 115 c 0
 463 205 572 199 613 121 c 0
 639 71 675 53 729 53 c 2
 803 53 l 1
EndSplineSet
Fore
SplineSet
803 -207 m 1
 803 -239 l 1
 365 -239 l 0
 260.05936403 -239 200.368556415 -193.619177315 185.000614934 -135.861529157 c 0
 167.691334525 -70.8077072817 208.605452998 1.74582044735 283.921184491 21.4713691716 c 0
 388.689435205 49.0920898145 371.484342913 80.7273169696 396.196205887 123.09051064 c 1
 412.094205408 150.087113599 432.898886281 169.699975332 455.989744433 181.912163021 c 0
 517.613129887 214.503257915 593.2452859 192.970134102 627.179118098 128.413087482 c 1
 650.577688147 83.4158373868 679.309980867 69 729 69 c 0
 803 69 l 1
 803 37 l 1
 729 37 l 0
 670.684452549 37 627.43683778 58.5562281365 598.80453118 113.618356214 c 0
 573.177581598 162.372065176 517.384386812 178.182526502 470.950300103 153.624678615 c 0
 453.391675812 144.338353525 436.893371174 129.137073049 423.787007798 106.880984297 c 0
 406.531292057 77.2997573126 407.302150963 20.9056919935 292.078815509 -9.47136917162 c 0
 232.74128067 -25.0121521056 203.464396035 -80.8036549455 215.924673477 -127.633369992 c 0
 226.50010843 -167.37924304 268.669305358 -207 365 -207 c 0
 803 -207 l 1
EndSplineSet
EndChar

StartChar: braceleft
Encoding: 123 123 51
Width: 1000
VWidth: 0
Flags: HW
LayerCount: 2
Back
SplineSet
641 717 m 17
 565 719 500 681 500 610 c 2
 500 358 l 2
 500 286 447 240 359 240 c 1
 446 240 500 199 500 123 c 2
 500 -115 l 2
 500 -203 565 -238 641 -238 c 9
EndSplineSet
Fore
SplineSet
442.305222387 240.491120538 m 1
 489.998666238 219.250611333 516 178.531503068 516 123 c 0
 516 -115 l 0
 516 -191.770889855 569.573472303 -222 641 -222 c 1
 641 -254 l 1
 560.426527697 -254 484 -214.229110145 484 -115 c 0
 484 123 l 0
 484 178.06973511 454.07208207 210.231284762 397.96330896 220.655394346 c 0
 386.138499901 222.852254099 373.11094004 224 359 224 c 0
 360 224 358 256 359 256 c 0
 373.247015499 256 386.348144305 257.289315593 398.215903019 259.699253539 c 0
 454.348652514 271.097904818 484 306.185045287 484 358 c 0
 484 610 l 0
 484 693.668366325 561.16313932 735.106509225 641.420906913 732.99446271 c 1
 640.579093087 701.00553729 l 1
 568.83686068 702.893490775 516 668.331633675 516 610 c 0
 516 358 l 0
 516 304.948344824 488.787730808 262.304152033 442.305222387 240.491120538 c 1
EndSplineSet
EndChar

StartChar: parenleft
Encoding: 40 40 52
Width: 1000
VWidth: 0
Flags: HW
LayerCount: 2
Back
SplineSet
578 769 m 0
 370 425 363 78 580 -289 c 0
EndSplineSet
Fore
SplineSet
564.308288263 777.278709423 m 1
 591.691711737 760.721290577 l 1
 386.436257691 421.260347347 379.440939516 81.6306184413 593.772582625 -280.856538339 c 1
 566.227417375 -297.143461661 l 1
 346.559060484 74.3693815586 353.563742309 428.739652653 564.308288263 777.278709423 c 1
EndSplineSet
EndChar

StartChar: bracketleft
Encoding: 91 91 53
Width: 1000
VWidth: 0
Flags: HW
LayerCount: 2
Back
SplineSet
570 716 m 1
 429 716 l 1
 429 -236 l 1
 571 -236 l 1
EndSplineSet
Fore
SplineSet
570 732 m 1
 570 700 l 1
 445 700 l 1
 445 -220 l 1
 571 -220 l 1
 571 -252 l 1
 429 -252 l 2
 422.132861227 -252 413 -245.684824228 413 -236 c 2
 413 716 l 2
 413 722.867138773 419.315175772 732 429 732 c 2
 570 732 l 1
EndSplineSet
EndChar

StartChar: uni064B
Encoding: 1611 1611 54
Width: 0
VWidth: 0
Flags: HW
LayerCount: 2
Back
SplineSet
194 179 m 1
 -194 179 l 1
194 29 m 1
 -194 28 l 1
EndSplineSet
Fore
SplineSet
194 189 m 1
 194 169 l 1
 -194 169 l 1
 -194 189 l 1
 194 189 l 1
193.97422689 38.9999667873 m 1
 194.02577311 19.0000332127 l 1
 -193.97422689 18.0000332127 l 1
 -194.02577311 37.9999667873 l 1
 193.97422689 38.9999667873 l 1
EndSplineSet
EndChar

StartChar: uni064E
Encoding: 1614 1614 55
Width: 0
VWidth: 0
Flags: HW
LayerCount: 2
Back
SplineSet
137 242 m 1
 -137 -34 l 1
EndSplineSet
Fore
SplineSet
129.903266135 249.045308258 m 1
 144.096733865 234.954691742 l 1
 -129.903266135 -41.0453082576 l 1
 -144.096733865 -26.9546917424 l 1
 129.903266135 249.045308258 l 1
EndSplineSet
EndChar

StartChar: uni064F
Encoding: 1615 1615 56
Width: 0
VWidth: 0
Flags: HW
LayerCount: 2
Back
SplineSet
-51 206 m 0
 -14 249 55 250 94 214 c 0
 133 178 134 115 96 74 c 0
 58 34 -2 31 -44 64 c 0
 -86 97 -88 163 -51 206 c 0
-124 -164 m 1
 90 68 l 1
EndSplineSet
Fore
SplineSet
-43.4198912622 199.477580853 m 0
 -77.2742989538 160.133269212 -74.5681640522 100.735338766 -37.8217844807 71.8631833882 c 0
 0.242189497352 41.9557752626 54.3935740806 44.7228297944 88.7075745904 80.8428303311 c 1
 123.146017998 118.000098218 121.839126274 174.693263429 87.2171989727 206.651965554 c 0
 52.3068512528 238.876901911 -10.3661448915 237.891394203 -43.4198912622 199.477580853 c 0
-58.5801087378 212.522419147 m 0
 -17.6338551085 260.108605797 57.6931487472 261.123098089 100.782801027 221.348034446 c 0
 144.160873726 181.306736571 144.853982002 111.999901782 103.29242541 67.1571696689 c 1
 61.6064259194 23.2771702056 -4.24218949735 20.0442247374 -50.1782155193 56.1368166118 c 0
 -97.4318359478 93.2646612342 -98.7257010462 165.866730788 -58.5801087378 212.522419147 c 0
-116.649536655 -170.780168775 m 1
 -131.350463345 -157.219831225 l 1
 82.6495366552 74.7801687749 l 1
 97.3504633448 61.2198312251 l 1
 -116.649536655 -170.780168775 l 1
EndSplineSet
EndChar

StartChar: uni0652
Encoding: 1618 1618 57
Width: 0
VWidth: 0
Flags: HW
LayerCount: 2
Back
SplineSet
-3 223 m 0
 54 225 102 175 102 122 c 0
 102 69 56 25 1 25 c 0
 -54 25 -98 67 -102 121 c 0
 -107 175 -60 221 -3 223 c 0
EndSplineSet
Fore
SplineSet
-2.64933859867 213.006150062 m 0
 -54.8589437316 211.174234093 -96.4273993039 169.277887386 -92.0341152581 121.830419691 c 1
 -88.3999834535 72.7696403292 -48.7117401453 35 1 35 c 0
 50.7875707532 35 92 74.9261042777 92 122 c 0
 92 169.351277258 48.375378112 214.796490999 -2.64933859867 213.006150062 c 0
-3.35066140133 232.993849938 m 0
 59.624621888 235.203509001 112 180.648722742 112 122 c 0
 112 63.0738957223 61.2124292468 15 1 15 c 0
 -59.2882598547 15 -107.600016546 61.2303596708 -111.965884742 120.169580309 c 1
 -117.572600696 180.722112614 -65.1410562684 230.825765907 -3.35066140133 232.993849938 c 0
EndSplineSet
EndChar

StartChar: uni064F.alt
Encoding: 65559 -1 58
Width: 0
VWidth: 0
Flags: HW
LayerCount: 2
Back
SplineSet
108 233 m 0
 165 235 212 184 212 131 c 0
 212 78 166 35 111 35 c 0
 56 35 13 76 9 130 c 0
 4 184 51 231 108 233 c 0
-212 32 m 1
 103 35 l 1
EndSplineSet
Fore
SplineSet
108.350661401 223.006150062 m 0
 56.275716854 221.178959025 14.5643536679 178.366955291 18.9658847419 130.830419691 c 1
 22.6024955051 81.7361743875 61.2402388523 45 111 45 c 0
 160.926455492 45 202 84.0235315674 202 131 c 0
 202 178.578975917 159.155639263 224.788780864 108.350661401 223.006150062 c 0
107.649338599 242.993849938 m 0
 170.844360737 245.211219136 222 189.421024083 222 131 c 0
 222 71.9764684326 171.073544508 25 111 25 c 0
 50.7597611477 25 3.39750449487 70.2638256125 -0.965884741911 129.169580309 c 1
 -6.56435366788 189.633044709 45.724283146 240.821040975 107.649338599 242.993849938 c 0
-211.904766224 22.0004534839 m 1
 -212.095233776 41.9995465161 l 1
 102.904766224 44.9995465161 l 1
 103.095233776 25.0004534839 l 1
 -211.904766224 22.0004534839 l 1
EndSplineSet
EndChar

StartChar: uni06A1.fina
Encoding: 65560 -1 59
Width: 1000
VWidth: 0
Flags: HW
LayerCount: 2
Back
SplineSet
66 99 m 1
 66 -53 l 2
 66 -111 108 -147 165 -147 c 2
 657 -147 l 2
 691 -147 712 -120 712 -93 c 2
 712 191 l 2
 712 319 570 344 498 298 c 0
 449 266 414 183 454 117 c 0
 501 39 571 53 672 53 c 2
 934 53 l 1
EndSplineSet
Fore
SplineSet
728 69 m 1
 934 69 l 1
 934 37 l 1
 728 37 l 1
 728 -93 l 0
 728 -127.966798866 700.493870231 -163 657 -163 c 0
 165 -163 l 0
 100.721250719 -163 50 -120.374580144 50 -53 c 0
 50 99 l 1
 82 99 l 1
 82 -53 l 0
 82 -101.625419856 115.278749281 -131 165 -131 c 0
 657 -131 l 0
 681.506129769 -131 696 -112.033201134 696 -93 c 0
 696 37 l 1
 672 37 l 0
 575.081645909 37 492.977448898 21.31286006 440.295640187 108.742244728 c 0
 394.826226744 183.766776911 434.116470376 275.389858059 489.318357551 311.440070092 c 1
 551.604287517 351.233858681 659.670796583 344.628890909 706.67606878 270.19330494 c 0
 720.174993978 248.816970753 728 222.212383417 728 191 c 0
 728 69 l 1
696 69 m 1
 696 191 l 0
 696 216.905896153 689.686984285 237.164544451 679.619328195 253.107264179 c 0
 644.567467957 308.61392618 556.266680225 316.239259598 506.681642449 284.559929908 c 1
 463.883633581 256.610209831 433.182231081 182.219368927 467.693785015 125.275304935 c 1
 509.032085974 56.6713161099 566.91472755 69 672 69 c 0
 696 69 l 1
EndSplineSet
EndChar

StartChar: uni066F
Encoding: 1647 1647 60
Width: 1000
VWidth: 0
Flags: HW
LayerCount: 2
Back
SplineSet
136 189 m 1
 136 -53 l 2
 136 -111 178 -147 235 -147 c 2
 657 -147 l 2
 691 -147 712 -120 712 -93 c 2
 712 191 l 2
 712 319 570 344 498 298 c 0
 449 266 414 183 454 117 c 0
 501 39 571 53 672 53 c 10
 705 53 l 25
EndSplineSet
Fore
SplineSet
696 37 m 1
 672 37 l 0
 575.081645909 37 492.977448898 21.31286006 440.295640187 108.742244728 c 0
 394.826226744 183.766776911 434.116470376 275.389858059 489.318357551 311.440070092 c 1
 551.604287517 351.233858681 659.670796583 344.628890909 706.67606878 270.19330494 c 0
 720.174993978 248.816970753 728 222.212383417 728 191 c 0
 728 -93 l 0
 728 -127.966798866 700.493870231 -163 657 -163 c 0
 235 -163 l 0
 170.721250719 -163 120 -120.374580144 120 -53 c 0
 120 189 l 1
 152 189 l 1
 152 -53 l 0
 152 -101.625419856 185.278749281 -131 235 -131 c 0
 657 -131 l 0
 681.506129769 -131 696 -112.033201134 696 -93 c 0
 696 37 l 1
696 69 m 1
 696 191 l 0
 696 216.905896153 689.686984285 237.164544451 679.619328195 253.107264179 c 0
 644.567467957 308.61392618 556.266680225 316.239259598 506.681642449 284.559929908 c 1
 463.883633581 256.610209831 433.182231081 182.219368927 467.693785015 125.275304935 c 1
 509.032085974 56.6713161099 566.91472755 69 672 69 c 0
 696 69 l 1
EndSplineSet
EndChar

StartChar: uni066F.fina
Encoding: 65561 -1 61
Width: 1000
VWidth: 0
Flags: HW
LayerCount: 2
Back
SplineSet
136 189 m 1
 136 -53 l 2
 136 -111 178 -147 235 -147 c 2
 657 -147 l 2
 691 -147 712 -120 712 -93 c 2
 712 191 l 2
 712 319 570 344 498 298 c 0
 449 266 414 183 454 117 c 0
 501 39 571 53 672 53 c 2
 934 53 l 1
EndSplineSet
Fore
SplineSet
728 69 m 1
 934 69 l 1
 934 37 l 1
 728 37 l 1
 728 -93 l 0
 728 -127.966798866 700.493870231 -163 657 -163 c 0
 235 -163 l 0
 170.721250719 -163 120 -120.374580144 120 -53 c 0
 120 189 l 1
 152 189 l 1
 152 -53 l 0
 152 -101.625419856 185.278749281 -131 235 -131 c 0
 657 -131 l 0
 681.506129769 -131 696 -112.033201134 696 -93 c 0
 696 37 l 1
 672 37 l 0
 575.081645909 37 492.977448898 21.31286006 440.295640187 108.742244728 c 0
 394.826226744 183.766776911 434.116470376 275.389858059 489.318357551 311.440070092 c 1
 551.604287517 351.233858681 659.670796583 344.628890909 706.67606878 270.19330494 c 0
 720.174993978 248.816970753 728 222.212383417 728 191 c 0
 728 69 l 1
696 69 m 1
 696 191 l 0
 696 216.905896153 689.686984285 237.164544451 679.619328195 253.107264179 c 0
 644.567467957 308.61392618 556.266680225 316.239259598 506.681642449 284.559929908 c 1
 463.883633581 256.610209831 433.182231081 182.219368927 467.693785015 125.275304935 c 1
 509.032085974 56.6713161099 566.91472755 69 672 69 c 0
 696 69 l 1
EndSplineSet
EndChar

StartChar: uni066F.init
Encoding: 65562 -1 62
Width: 1000
VWidth: 0
Flags: HW
LayerCount: 2
Back
SplineSet
305 53 m 9
 657 53 l 2
 691 53 712 80 712 107 c 2
 712 331 l 2
 712 459 570 484 498 438 c 0
 449 406 414 323 454 257 c 0
 501 179 571 193 672 193 c 10
 707.5 193 l 25
EndSplineSet
Fore
SplineSet
696 177 m 1
 672 177 l 0
 575.081645909 177 492.977448898 161.31286006 440.295640187 248.742244728 c 0
 394.826226744 323.766776911 434.116470376 415.389858059 489.318357551 451.440070092 c 1
 551.604287517 491.233858681 659.670796583 484.628890909 706.67606878 410.19330494 c 0
 720.174993978 388.816970753 728 362.212383417 728 331 c 0
 728 107 l 0
 728 72.0332011339 700.493870231 37 657 37 c 0
 305 37 l 1
 305 69 l 1
 657 69 l 0
 681.506129769 69 696 87.9667988661 696 107 c 0
 696 177 l 1
696 209 m 1
 696 331 l 0
 696 356.905896153 689.686984285 377.164544451 679.619328195 393.107264179 c 0
 644.567467957 448.61392618 556.266680225 456.239259598 506.681642449 424.559929908 c 1
 463.883633581 396.610209831 433.182231081 322.219368927 467.693785015 265.275304935 c 1
 509.032085974 196.67131611 566.91472755 209 672 209 c 0
 696 209 l 1
EndSplineSet
EndChar
